<svg id="visual" viewBox="0 0 900 600" width="900" height="600" xmlns="http://www.w3.org/2000/svg" xmlns:xlink="http://www.w3.org/1999/xlink" version="1.1"><rect x="0" y="0" width="900" height="600" fill="#002233"></rect><path d="M603 600L608.8 585.7C614.7 571.3 626.3 542.7 622.8 514.2C619.3 485.7 600.7 457.3 606 428.8C611.3 400.3 640.7 371.7 644.8 343C649 314.3 628 285.7 624.2 257C620.3 228.3 633.7 199.7 637.2 171.2C640.7 142.7 634.3 114.3 643.8 85.8C653.3 57.3 678.7 28.7 691.3 14.3L704 0L900 0L900 14.3C900 28.7 900 57.3 900 85.8C900 114.3 900 142.7 900 171.2C900 199.7 900 228.3 900 257C900 285.7 900 314.3 900 343C900 371.7 900 400.3 900 428.8C900 457.3 900 485.7 900 514.2C900 542.7 900 571.3 900 585.7L900 600Z" fill="#0066FF" stroke-linecap="round" stroke-linejoin="miter"></path></svg>